<mxfile host="app.diagrams.net" agent="Mozilla/5.0 (Windows NT 10.0; Win64; x64) AppleWebKit/537.36 (KHTML, like Gecko) Chrome/136.0.0.0 Safari/537.36" version="26.2.13">
  <diagram name="第 1 页" id="AXSYjH2zxapOVUtuNu1k">
    <mxGraphModel dx="895" dy="555" grid="1" gridSize="10" guides="1" tooltips="1" connect="1" arrows="1" fold="1" page="1" pageScale="1" pageWidth="850" pageHeight="1100" math="0" shadow="0">
      <root>
        <mxCell id="0" />
        <mxCell id="1" parent="0" />
        <mxCell id="dd4_XDbVNWYlaRWbjQDs-8" value="" style="group" vertex="1" connectable="0" parent="1">
          <mxGeometry x="390" y="260" width="80" height="140" as="geometry" />
        </mxCell>
        <mxCell id="dd4_XDbVNWYlaRWbjQDs-1" value="" style="rounded=0;whiteSpace=wrap;html=1;" vertex="1" parent="dd4_XDbVNWYlaRWbjQDs-8">
          <mxGeometry y="20" width="80" height="120" as="geometry" />
        </mxCell>
        <mxCell id="dd4_XDbVNWYlaRWbjQDs-2" value="SDFF" style="text;html=1;align=center;verticalAlign=middle;whiteSpace=wrap;rounded=0;" vertex="1" parent="dd4_XDbVNWYlaRWbjQDs-8">
          <mxGeometry x="20" width="40" height="20" as="geometry" />
        </mxCell>
        <mxCell id="dd4_XDbVNWYlaRWbjQDs-3" value="DI" style="text;html=1;align=center;verticalAlign=middle;whiteSpace=wrap;rounded=0;" vertex="1" parent="dd4_XDbVNWYlaRWbjQDs-8">
          <mxGeometry y="40" width="20" height="20" as="geometry" />
        </mxCell>
        <mxCell id="dd4_XDbVNWYlaRWbjQDs-4" value="SI" style="text;html=1;align=center;verticalAlign=middle;whiteSpace=wrap;rounded=0;" vertex="1" parent="dd4_XDbVNWYlaRWbjQDs-8">
          <mxGeometry y="65" width="20" height="20" as="geometry" />
        </mxCell>
        <mxCell id="dd4_XDbVNWYlaRWbjQDs-5" value="SE" style="text;html=1;align=center;verticalAlign=middle;whiteSpace=wrap;rounded=0;" vertex="1" parent="dd4_XDbVNWYlaRWbjQDs-8">
          <mxGeometry y="100" width="20" height="20" as="geometry" />
        </mxCell>
        <mxCell id="dd4_XDbVNWYlaRWbjQDs-6" value="Q" style="text;html=1;align=center;verticalAlign=middle;whiteSpace=wrap;rounded=0;" vertex="1" parent="dd4_XDbVNWYlaRWbjQDs-8">
          <mxGeometry x="60" y="70" width="20" height="20" as="geometry" />
        </mxCell>
        <mxCell id="dd4_XDbVNWYlaRWbjQDs-7" value="" style="verticalLabelPosition=bottom;verticalAlign=top;html=1;shape=mxgraph.basic.acute_triangle;dx=0.5;" vertex="1" parent="dd4_XDbVNWYlaRWbjQDs-8">
          <mxGeometry x="30" y="130" width="20" height="10" as="geometry" />
        </mxCell>
        <mxCell id="dd4_XDbVNWYlaRWbjQDs-9" value="" style="group" vertex="1" connectable="0" parent="1">
          <mxGeometry x="680" y="260" width="80" height="140" as="geometry" />
        </mxCell>
        <mxCell id="dd4_XDbVNWYlaRWbjQDs-10" value="" style="rounded=0;whiteSpace=wrap;html=1;" vertex="1" parent="dd4_XDbVNWYlaRWbjQDs-9">
          <mxGeometry y="20" width="80" height="120" as="geometry" />
        </mxCell>
        <mxCell id="dd4_XDbVNWYlaRWbjQDs-11" value="SDFF" style="text;html=1;align=center;verticalAlign=middle;whiteSpace=wrap;rounded=0;" vertex="1" parent="dd4_XDbVNWYlaRWbjQDs-9">
          <mxGeometry x="20" width="40" height="20" as="geometry" />
        </mxCell>
        <mxCell id="dd4_XDbVNWYlaRWbjQDs-12" value="DI" style="text;html=1;align=center;verticalAlign=middle;whiteSpace=wrap;rounded=0;" vertex="1" parent="dd4_XDbVNWYlaRWbjQDs-9">
          <mxGeometry y="40" width="20" height="20" as="geometry" />
        </mxCell>
        <mxCell id="dd4_XDbVNWYlaRWbjQDs-13" value="SI" style="text;html=1;align=center;verticalAlign=middle;whiteSpace=wrap;rounded=0;" vertex="1" parent="dd4_XDbVNWYlaRWbjQDs-9">
          <mxGeometry y="70" width="20" height="20" as="geometry" />
        </mxCell>
        <mxCell id="dd4_XDbVNWYlaRWbjQDs-14" value="SE" style="text;html=1;align=center;verticalAlign=middle;whiteSpace=wrap;rounded=0;" vertex="1" parent="dd4_XDbVNWYlaRWbjQDs-9">
          <mxGeometry y="100" width="20" height="20" as="geometry" />
        </mxCell>
        <mxCell id="dd4_XDbVNWYlaRWbjQDs-15" value="Q" style="text;html=1;align=center;verticalAlign=middle;whiteSpace=wrap;rounded=0;" vertex="1" parent="dd4_XDbVNWYlaRWbjQDs-9">
          <mxGeometry x="60" y="70" width="20" height="20" as="geometry" />
        </mxCell>
        <mxCell id="dd4_XDbVNWYlaRWbjQDs-16" value="" style="verticalLabelPosition=bottom;verticalAlign=top;html=1;shape=mxgraph.basic.acute_triangle;dx=0.5;" vertex="1" parent="dd4_XDbVNWYlaRWbjQDs-9">
          <mxGeometry x="30" y="130" width="20" height="10" as="geometry" />
        </mxCell>
        <mxCell id="dd4_XDbVNWYlaRWbjQDs-18" value="" style="group;strokeColor=#CC0000;" vertex="1" connectable="0" parent="1">
          <mxGeometry x="530" y="290" width="80" height="90" as="geometry" />
        </mxCell>
        <mxCell id="dd4_XDbVNWYlaRWbjQDs-19" value="" style="rounded=0;whiteSpace=wrap;html=1;strokeColor=#CC0000;" vertex="1" parent="dd4_XDbVNWYlaRWbjQDs-18">
          <mxGeometry y="12.857142857142858" width="80" height="77.14285714285715" as="geometry" />
        </mxCell>
        <mxCell id="dd4_XDbVNWYlaRWbjQDs-20" value="Latch" style="text;html=1;align=center;verticalAlign=middle;whiteSpace=wrap;rounded=0;strokeColor=#CC0000;" vertex="1" parent="dd4_XDbVNWYlaRWbjQDs-18">
          <mxGeometry x="20" width="40" height="12.857142857142858" as="geometry" />
        </mxCell>
        <mxCell id="dd4_XDbVNWYlaRWbjQDs-21" value="D" style="text;html=1;align=center;verticalAlign=middle;whiteSpace=wrap;rounded=0;strokeColor=#CC0000;" vertex="1" parent="dd4_XDbVNWYlaRWbjQDs-18">
          <mxGeometry y="45" width="20" height="12.857142857142858" as="geometry" />
        </mxCell>
        <mxCell id="dd4_XDbVNWYlaRWbjQDs-24" value="Q" style="text;html=1;align=center;verticalAlign=middle;whiteSpace=wrap;rounded=0;strokeColor=#CC0000;" vertex="1" parent="dd4_XDbVNWYlaRWbjQDs-18">
          <mxGeometry x="60" y="45" width="20" height="12.857142857142858" as="geometry" />
        </mxCell>
        <mxCell id="dd4_XDbVNWYlaRWbjQDs-25" value="" style="verticalLabelPosition=bottom;verticalAlign=top;html=1;shape=mxgraph.basic.acute_triangle;dx=0.5;strokeColor=#CC0000;" vertex="1" parent="dd4_XDbVNWYlaRWbjQDs-18">
          <mxGeometry x="30" y="83.57142857142858" width="20" height="6.428571428571429" as="geometry" />
        </mxCell>
        <mxCell id="dd4_XDbVNWYlaRWbjQDs-28" value="" style="group" vertex="1" connectable="0" parent="1">
          <mxGeometry x="240" y="430" width="90" height="30" as="geometry" />
        </mxCell>
        <mxCell id="dd4_XDbVNWYlaRWbjQDs-26" value="" style="shape=offPageConnector;whiteSpace=wrap;html=1;rotation=-90;" vertex="1" parent="dd4_XDbVNWYlaRWbjQDs-28">
          <mxGeometry x="30" y="-30" width="30" height="90" as="geometry" />
        </mxCell>
        <mxCell id="dd4_XDbVNWYlaRWbjQDs-27" value="clk1" style="text;html=1;align=center;verticalAlign=middle;whiteSpace=wrap;rounded=0;" vertex="1" parent="dd4_XDbVNWYlaRWbjQDs-28">
          <mxGeometry x="5" y="5" width="40" height="20" as="geometry" />
        </mxCell>
        <mxCell id="dd4_XDbVNWYlaRWbjQDs-37" value="" style="group" vertex="1" connectable="0" parent="1">
          <mxGeometry x="240" y="470" width="90" height="30" as="geometry" />
        </mxCell>
        <mxCell id="dd4_XDbVNWYlaRWbjQDs-38" value="" style="shape=offPageConnector;whiteSpace=wrap;html=1;rotation=-90;" vertex="1" parent="dd4_XDbVNWYlaRWbjQDs-37">
          <mxGeometry x="30" y="-30" width="30" height="90" as="geometry" />
        </mxCell>
        <mxCell id="dd4_XDbVNWYlaRWbjQDs-39" value="clk2" style="text;html=1;align=center;verticalAlign=middle;whiteSpace=wrap;rounded=0;" vertex="1" parent="dd4_XDbVNWYlaRWbjQDs-37">
          <mxGeometry x="5" y="5" width="40" height="20" as="geometry" />
        </mxCell>
        <mxCell id="dd4_XDbVNWYlaRWbjQDs-40" style="edgeStyle=orthogonalEdgeStyle;rounded=0;orthogonalLoop=1;jettySize=auto;html=1;entryX=0.5;entryY=1;entryDx=0;entryDy=0;entryPerimeter=0;" edge="1" parent="1" source="dd4_XDbVNWYlaRWbjQDs-26" target="dd4_XDbVNWYlaRWbjQDs-7">
          <mxGeometry relative="1" as="geometry" />
        </mxCell>
        <mxCell id="dd4_XDbVNWYlaRWbjQDs-41" style="edgeStyle=orthogonalEdgeStyle;rounded=0;orthogonalLoop=1;jettySize=auto;html=1;entryX=0.5;entryY=1;entryDx=0;entryDy=0;entryPerimeter=0;" edge="1" parent="1" source="dd4_XDbVNWYlaRWbjQDs-26" target="dd4_XDbVNWYlaRWbjQDs-25">
          <mxGeometry relative="1" as="geometry" />
        </mxCell>
        <mxCell id="dd4_XDbVNWYlaRWbjQDs-42" style="edgeStyle=orthogonalEdgeStyle;rounded=0;orthogonalLoop=1;jettySize=auto;html=1;entryX=0.5;entryY=1;entryDx=0;entryDy=0;entryPerimeter=0;" edge="1" parent="1" source="dd4_XDbVNWYlaRWbjQDs-38" target="dd4_XDbVNWYlaRWbjQDs-16">
          <mxGeometry relative="1" as="geometry" />
        </mxCell>
        <mxCell id="dd4_XDbVNWYlaRWbjQDs-44" value="" style="group" vertex="1" connectable="0" parent="1">
          <mxGeometry x="240" y="320" width="90" height="30" as="geometry" />
        </mxCell>
        <mxCell id="dd4_XDbVNWYlaRWbjQDs-45" value="" style="shape=offPageConnector;whiteSpace=wrap;html=1;rotation=-90;" vertex="1" parent="dd4_XDbVNWYlaRWbjQDs-44">
          <mxGeometry x="30" y="-30" width="30" height="90" as="geometry" />
        </mxCell>
        <mxCell id="dd4_XDbVNWYlaRWbjQDs-46" value="test_si" style="text;html=1;align=center;verticalAlign=middle;whiteSpace=wrap;rounded=0;" vertex="1" parent="dd4_XDbVNWYlaRWbjQDs-44">
          <mxGeometry x="5" y="5" width="40" height="20" as="geometry" />
        </mxCell>
        <mxCell id="dd4_XDbVNWYlaRWbjQDs-47" style="edgeStyle=orthogonalEdgeStyle;rounded=0;orthogonalLoop=1;jettySize=auto;html=1;entryX=0;entryY=0.5;entryDx=0;entryDy=0;" edge="1" parent="1" source="dd4_XDbVNWYlaRWbjQDs-45" target="dd4_XDbVNWYlaRWbjQDs-4">
          <mxGeometry relative="1" as="geometry" />
        </mxCell>
        <mxCell id="dd4_XDbVNWYlaRWbjQDs-48" style="edgeStyle=orthogonalEdgeStyle;rounded=0;orthogonalLoop=1;jettySize=auto;html=1;" edge="1" parent="1" source="dd4_XDbVNWYlaRWbjQDs-6">
          <mxGeometry relative="1" as="geometry">
            <mxPoint x="530" y="340" as="targetPoint" />
          </mxGeometry>
        </mxCell>
        <mxCell id="dd4_XDbVNWYlaRWbjQDs-49" style="edgeStyle=orthogonalEdgeStyle;rounded=0;orthogonalLoop=1;jettySize=auto;html=1;" edge="1" parent="1" source="dd4_XDbVNWYlaRWbjQDs-24">
          <mxGeometry relative="1" as="geometry">
            <mxPoint x="680" y="341" as="targetPoint" />
          </mxGeometry>
        </mxCell>
        <mxCell id="dd4_XDbVNWYlaRWbjQDs-50" value="" style="endArrow=none;html=1;rounded=0;entryX=1;entryY=0.5;entryDx=0;entryDy=0;" edge="1" parent="1" target="dd4_XDbVNWYlaRWbjQDs-15">
          <mxGeometry width="50" height="50" relative="1" as="geometry">
            <mxPoint x="780" y="340" as="sourcePoint" />
            <mxPoint x="750" y="350" as="targetPoint" />
          </mxGeometry>
        </mxCell>
      </root>
    </mxGraphModel>
  </diagram>
</mxfile>
